<svg width="100" height="100" viewBox="0 0 100 100" fill="none" xmlns="http://www.w3.org/2000/svg">
<g clip-path="url(#clip0_1301_40)">
<path d="M28.3213 73.1406L15.1045 86.6025L0 71.2168V44.292L28.3213 73.1406Z" fill="#FBFBFB"/>
<path d="M100 26.9199L28.2559 99.998L15.0391 86.5361L100 -0.00390625V26.9199Z" fill="#FBFBFB"/>
<path d="M64.6685 99.6152C63.8884 99.6152 63.2225 99.3395 62.671 98.788C62.1195 98.2365 61.8438 97.5706 61.8438 96.7904C61.8438 96.0103 62.1195 95.3444 62.671 94.7929C63.2225 94.2414 63.8884 93.9656 64.6685 93.9656C65.4487 93.9656 66.1146 94.2414 66.6661 94.7929C67.2176 95.3444 67.4933 96.0103 67.4933 96.7904C67.4933 97.5706 67.2176 98.2365 66.6661 98.788C66.1146 99.3395 65.4487 99.6152 64.6685 99.6152Z" fill="#FBFBFB"/>
<path d="M89.0155 80.2264V99.5157H85.3029V97.5384C84.4958 98.3186 83.5677 98.9239 82.5184 99.3543C81.4692 99.7848 80.3393 100 79.1287 100C77.7566 100 76.4788 99.7377 75.295 99.2131C74.1113 98.6885 73.0823 97.9688 72.2079 97.0541C71.3336 96.1394 70.6476 95.0633 70.1499 93.8258C69.6522 92.5883 69.4033 91.27 69.4033 89.8711C69.4033 88.4721 69.6522 87.1539 70.1499 85.9164C70.6476 84.6788 71.3336 83.6027 72.2079 82.688C73.0823 81.7733 74.1113 81.0537 75.295 80.5291C76.4788 80.0045 77.7566 79.7422 79.1287 79.7422C80.3393 79.7422 81.4692 79.9574 82.5184 80.3878C83.5677 80.8183 84.4958 81.4236 85.3029 82.2038V80.2264H89.0155ZM79.5322 96.2874C80.3931 96.2874 81.2002 96.126 81.9535 95.8032C82.7068 95.4803 83.3592 95.0297 83.9107 94.4513C84.4622 93.8729 84.8926 93.1936 85.202 92.4134C85.5114 91.6332 85.6661 90.7858 85.6661 89.8711C85.6661 88.9564 85.5114 88.109 85.202 87.3288C84.8926 86.5486 84.4622 85.8693 83.9107 85.2909C83.3592 84.7125 82.7068 84.2618 81.9535 83.939C81.2002 83.6162 80.3931 83.4548 79.5322 83.4548C78.6713 83.4548 77.8643 83.6162 77.111 83.939C76.3577 84.2618 75.7053 84.7125 75.1538 85.2909C74.6023 85.8693 74.1718 86.5486 73.8625 87.3288C73.5531 88.109 73.3984 88.9564 73.3984 89.8711C73.3984 90.7858 73.5531 91.6332 73.8625 92.4134C74.1718 93.1936 74.6023 93.8729 75.1538 94.4513C75.7053 95.0297 76.3577 95.4803 77.111 95.8032C77.8643 96.126 78.6713 96.2874 79.5322 96.2874Z" fill="#FBFBFB"/>
<path d="M95.3898 80.2283H99.2234V99.5176H95.3898V80.2283ZM97.3268 77.242C96.6004 77.242 95.9682 76.973 95.4301 76.435C94.8921 75.8969 94.623 75.2647 94.623 74.5383C94.623 73.8119 94.8921 73.1864 95.4301 72.6618C95.9682 72.1372 96.6004 71.8749 97.3268 71.8749C98.0532 71.8749 98.6786 72.1372 99.2033 72.6618C99.7279 73.1864 99.9902 73.8119 99.9902 74.5383C99.9902 75.2647 99.7279 75.8969 99.2033 76.435C98.6786 76.973 98.0532 77.242 97.3268 77.242Z" fill="#FBFBFB"/>
</g>
<defs>
<clipPath id="clip0_1301_40">
<rect width="100" height="100" fill="white"/>
</clipPath>
</defs>
</svg>
