<svg width="340" height="132" viewBox="0 0 340 132" fill="none" xmlns="http://www.w3.org/2000/svg">
<path class="path-fill" d="M31.8516 106.8C26.5716 106.8 21.7716 105.6 17.4516 103.2C13.2516 100.8 9.95156 97.5 7.55156 93.3C5.15156 88.98 3.95156 84.18 3.95156 78.9C3.95156 73.74 5.15156 69.12 7.55156 65.04C9.95156 60.96 13.2516 57.78 17.4516 55.5C21.7716 53.1 26.5716 51.9 31.8516 51.9C37.1316 51.9 41.8716 53.1 46.0716 55.5C50.2716 57.78 53.5716 60.96 55.9716 65.04C58.4916 69.12 59.7516 73.74 59.7516 78.9C59.7516 84.18 58.4916 88.98 55.9716 93.3C53.5716 97.5 50.2716 100.8 46.0716 103.2C41.8716 105.6 37.1316 106.8 31.8516 106.8ZM31.8516 95.64C36.5316 95.64 40.3116 94.14 43.1916 91.14C46.0716 88.02 47.5116 83.94 47.5116 78.9C47.5116 74.1 46.0716 70.26 43.1916 67.38C40.3116 64.5 36.5316 63.06 31.8516 63.06C27.0516 63.06 23.2116 64.5 20.3316 67.38C17.5716 70.26 16.1916 74.1 16.1916 78.9C16.1916 83.94 17.5716 88.02 20.3316 91.14C23.2116 94.14 27.0516 95.64 31.8516 95.64ZM65.0813 58.02C65.0813 56.1 65.7413 54.6 67.0613 53.52C68.3813 52.44 69.8213 51.9 71.3813 51.9C73.9013 51.9 75.7013 53.16 76.7813 55.68L90.8213 90.06C91.1813 91.02 91.8413 91.5 92.8013 91.5C93.7613 91.5 94.4213 91.08 94.7813 90.24L106.841 55.86C107.801 53.22 109.661 51.9 112.421 51.9C114.101 51.9 115.601 52.44 116.921 53.52C118.361 54.6 119.081 55.92 119.081 57.48C119.081 58.08 118.901 58.92 118.541 60L91.0013 127.14C90.0413 129.78 88.1813 131.1 85.4213 131.1C83.8613 131.1 82.3613 130.56 80.9213 129.48C79.6013 128.4 78.9413 127.08 78.9413 125.52C78.9413 124.32 79.1213 123.48 79.4813 123L88.3013 105C85.7813 104.76 84.0413 103.56 83.0813 101.4L65.4413 60.18C65.2013 59.22 65.0813 58.5 65.0813 58.02ZM149.6 106.8C144.44 106.8 139.82 105.6 135.74 103.2C131.66 100.8 128.48 97.5 126.2 93.3C123.92 88.98 122.78 84.18 122.78 78.9C122.78 73.74 123.92 69.12 126.2 65.04C128.48 60.96 131.66 57.78 135.74 55.5C139.82 53.1 144.44 51.9 149.6 51.9C152.96 51.9 155.96 52.5 158.6 53.7C161.24 54.78 163.52 56.22 165.44 58.02C165.68 56.34 166.4 55.08 167.6 54.24C168.8 53.28 170.12 52.8 171.56 52.8C173.12 52.8 174.5 53.34 175.7 54.42C177.02 55.38 177.68 56.88 177.68 58.92V101.22C177.68 103.02 177.02 104.4 175.7 105.36C174.5 106.32 173.12 106.8 171.56 106.8C170 106.8 168.56 106.32 167.24 105.36C166.04 104.4 165.44 103.02 165.44 101.22V100.5C163.52 102.42 161.24 103.92 158.6 105C155.96 106.2 152.96 106.8 149.6 106.8ZM150.68 95.64C155.24 95.64 158.84 94.14 161.48 91.14C164.12 88.02 165.44 83.94 165.44 78.9C165.44 74.1 164.12 70.26 161.48 67.38C158.84 64.5 155.24 63.06 150.68 63.06C146 63.06 142.22 64.5 139.34 67.38C136.46 70.26 135.02 74.1 135.02 78.9C135.02 83.94 136.46 88.02 139.34 91.14C142.22 94.14 146 95.64 150.68 95.64ZM211.583 106.8C206.903 106.8 203.063 105.36 200.063 102.48C197.063 99.6 195.563 95.28 195.563 89.52V66.66C195.563 65.46 194.963 64.86 193.763 64.86H190.523C188.963 64.86 187.643 64.38 186.563 63.42C185.483 62.34 184.943 61.02 184.943 59.46C184.943 57.78 185.483 56.4 186.563 55.32C187.643 54.24 188.963 53.7 190.523 53.7H193.763C194.963 53.7 195.563 53.1 195.563 51.9V36.78C195.563 35.1 196.103 33.78 197.183 32.82C198.383 31.74 199.823 31.2 201.503 31.2C203.303 31.2 204.743 31.74 205.823 32.82C207.023 33.78 207.623 35.1 207.623 36.78V51.9C207.623 53.1 208.223 53.7 209.423 53.7H219.143C220.583 53.7 221.843 54.24 222.923 55.32C224.003 56.4 224.543 57.78 224.543 59.46C224.543 61.02 224.003 62.34 222.923 63.42C221.963 64.38 220.643 64.86 218.963 64.86H209.423C208.223 64.86 207.623 65.46 207.623 66.66V87.9C207.623 92.94 209.663 95.46 213.743 95.46C214.943 95.46 216.203 95.28 217.523 94.92C218.843 94.56 219.743 94.38 220.223 94.38C221.903 94.38 223.163 94.92 224.003 96C224.963 97.08 225.443 98.34 225.443 99.78C225.443 100.86 225.143 101.94 224.543 103.02C223.943 103.98 222.983 104.7 221.663 105.18C220.343 105.66 218.663 106.02 216.623 106.26C214.703 106.62 213.023 106.8 211.583 106.8ZM259.505 106.8C250.505 106.8 243.485 104.22 238.445 99.06C233.405 93.9 230.885 86.94 230.885 78.18C230.885 70.5 233.405 64.2 238.445 59.28C243.605 54.36 250.205 51.9 258.245 51.9C266.045 51.9 272.285 54.18 276.965 58.74C281.645 63.18 283.985 68.7 283.985 75.3C283.985 77.94 283.265 79.92 281.825 81.24C280.505 82.56 278.765 83.22 276.605 83.22H245.285C244.085 83.22 243.665 83.88 244.025 85.2C244.985 88.56 246.905 91.2 249.785 93.12C252.785 94.92 256.145 95.82 259.865 95.82C262.625 95.82 265.265 95.46 267.785 94.74C270.425 94.02 272.705 92.94 274.625 91.5C275.225 91.02 276.005 90.78 276.965 90.78C278.285 90.78 279.485 91.38 280.565 92.58C281.645 93.66 282.185 94.98 282.185 96.54C282.185 97.26 282.065 97.98 281.825 98.7C281.585 99.42 281.045 100.14 280.205 100.86C277.085 103.14 273.725 104.7 270.125 105.54C266.645 106.38 263.105 106.8 259.505 106.8ZM269.945 73.86C270.665 73.86 271.025 73.5 271.025 72.78C271.025 70.02 269.765 67.62 267.245 65.58C264.845 63.54 261.845 62.52 258.245 62.52C255.125 62.52 252.125 63.36 249.245 65.04C246.485 66.72 244.805 68.94 244.205 71.7C244.205 71.7 244.205 71.76 244.205 71.88C244.085 72.36 244.025 72.78 244.025 73.14C244.145 73.5 244.685 73.68 245.645 73.68L269.945 73.86ZM300.898 106.8C299.338 106.8 297.898 106.32 296.578 105.36C295.378 104.4 294.778 103.02 294.778 101.22V32.82C294.778 30.78 295.378 29.28 296.578 28.32C297.898 27.24 299.338 26.7 300.898 26.7C302.458 26.7 303.838 27.24 305.038 28.32C306.358 29.28 307.018 30.78 307.018 32.82V101.22C307.018 103.02 306.358 104.4 305.038 105.36C303.838 106.32 302.458 106.8 300.898 106.8Z" fill="#F8F8F8"/>
<path class="path-stroke" d="M305 4H305.631C322.475 4 336.13 17.6553 336.13 34.5"  stroke-width="7" stroke-linecap="round"/>
<path class="path-stroke" d="M306.893 16.8311H307.314C316.839 16.8311 324.561 24.5534 324.561 34.0794" stroke-width="7" stroke-linecap="round"/>
<line class="path-stroke" x1="84.7546" y1="100.19" x2="91.4546" y2="115.327"  stroke-width="4"/>
</svg>
